# xmcd
#
# Track frame offsets: 
#        150
#        20388
#        37648
#        54242
#        74096
#        99746
#        135568
#        154873
#        168918
#
# Disc length: 2579 seconds
#
# Revision: 0
# Processed by: cddbd v1.5.2PL0 Copyright (c) Steve Scherf et al.
# Submitted via: ExactAudioCopy v0.95b3
#
DISCID=6c0a1109
DTITLE=Bloodrock  - Passage (Vinyl)
DYEAR=1900
DGENRE=
TTITLE0=Help Is On The Way
TTITLE1=Scottsman
TTITLE2=Juice
TTITLE3=The Power
TTITLE4=Life Blood
TTITLE5=Days And Nights
TTITLE6=Lost Fame
TTITLE7=Thank You Daniel Ellsberg
TTITLE8=Fantasy
EXTD=
EXTT0=
EXTT1=
EXTT2=
EXTT3=
EXTT4=
EXTT5=
EXTT6=
EXTT7=
EXTT8=
PLAYORDER=
